<?xml version="1.0" encoding="UTF-8" standalone="no"?>
<svg
   xmlns:dc="http://purl.org/dc/elements/1.1/"
   xmlns:cc="http://creativecommons.org/ns#"
   xmlns:rdf="http://www.w3.org/1999/02/22-rdf-syntax-ns#"
   xmlns:svg="http://www.w3.org/2000/svg"
   xmlns="http://www.w3.org/2000/svg"
   xmlns:sodipodi="http://sodipodi.sourceforge.net/DTD/sodipodi-0.dtd"
   xmlns:inkscape="http://www.inkscape.org/namespaces/inkscape"
   version="1.1"
   x="0px"
   y="0px"
   viewBox="0 0 59.999998 60.010135"
   enable-background="new 0 0 100 100"
   xml:space="preserve"
   id="svg2"
   inkscape:version="0.91 r13725"
   sodipodi:docname="class.svg"
   width="60"
   height="60.010136"><metadata
     id="metadata44"><rdf:RDF><cc:Work
         rdf:about=""><dc:format>image/svg+xml</dc:format><dc:type
           rdf:resource="http://purl.org/dc/dcmitype/StillImage" /><dc:title></dc:title></cc:Work></rdf:RDF></metadata><defs
     id="defs42" /><sodipodi:namedview
     pagecolor="#ffffff"
     bordercolor="#666666"
     borderopacity="1"
     objecttolerance="10"
     gridtolerance="10"
     guidetolerance="10"
     inkscape:pageopacity="0"
     inkscape:pageshadow="2"
     inkscape:window-width="1920"
     inkscape:window-height="1051"
     id="namedview40"
     showgrid="false"
     inkscape:zoom="3.776"
     inkscape:cx="20.759601"
     inkscape:cy="24.682432"
     inkscape:window-x="-9"
     inkscape:window-y="-9"
     inkscape:window-maximized="1"
     inkscape:current-layer="g4412"
     fit-margin-top="0"
     fit-margin-left="0"
     fit-margin-right="0"
     fit-margin-bottom="0" /><g
     id="g4412"
     transform="matrix(1.151735,0,0,1.4126744,-0.54239475,-25.214849)"><g
       id="g4478"
       transform="matrix(1.25311,0,0,0.91512446,-6.2910538,1.1752575)"><path
         inkscape:connector-curvature="0"
         id="path4428"
         d="m 26.718279,18.133883 c -0.07185,-0.0019 -0.144472,0.0236 -0.200158,0.07744 l -9.450788,3.684247 c -0.113085,0.107576 -0.117987,0.287877 -0.01081,0.402259 l 0.687034,0.425568 -0.06131,0.621811 c -0.240385,0.03463 -0.428831,0.238636 -0.435483,0.492486 -0.0063,0.227885 0.137944,0.426849 0.339911,0.498501 l -0.559906,5.766222 0.518434,1.723325 c 1.067615,-2.342931 0.461865,-4.976294 0.350732,-7.481277 0.206289,-0.06154 0.360062,-0.250232 0.366054,-0.478951 0.0067,-0.253854 -0.171025,-0.46834 -0.408431,-0.515795 l -0.02615,-0.574442 0.961126,0.598502 0.03877,0.02406 0.763674,0.474441 -0.265077,2.538371 c 0.139828,0.004 0.394495,0.01484 0.558106,0.0203 -0.02567,1.926749 0.289991,9.177533 6.513303,9.177533 5.718669,0 6.447582,-6.117671 6.508799,-8.606851 0.13649,0.0061 0.236017,0.01047 0.373269,0.01654 l -0.183927,-2.527845 0.842114,-0.463914 0.427368,-0.233837 1.784304,-0.982716 c 0.112278,-0.109294 0.117227,-0.288735 0.01082,-0.40226 l -9.24522,-4.185755 c -0.05355,-0.05684 -0.124701,-0.08606 -0.196553,-0.08797 z m -5.416934,8.989561 10.730185,0 c 0,0 0.558914,7.968499 -5.365545,7.968499 -5.924448,0 -5.36464,-7.968499 -5.36464,-7.968499 z"
         style="fill:none;fill-opacity:1;stroke:#b78e4a;stroke-width:0.5511229;stroke-miterlimit:4;stroke-dasharray:none;stroke-opacity:1" /><path
         sodipodi:nodetypes="cczcczzczc"
         style="fill:none;fill-rule:evenodd;stroke:#b78e4a;stroke-width:0.42155877px;stroke-linecap:butt;stroke-linejoin:miter;stroke-opacity:1"
         d="m 29.182266,36.692475 3.641276,0.489756 c 1.469515,0.328364 4.229035,0.690881 5.175815,1.480427 0.946779,0.789547 1.282055,3.990098 1.282055,3.990098 l -25.349589,0.101951 c 0,0 0.335275,-3.200552 1.282055,-3.990098 0.94678,-0.789547 3.461795,-1.050112 4.931307,-1.378476 l 3.885784,-0.591707 c 0,0 0.875847,3.627836 2.575648,3.619253 1.699801,-0.0086 2.575649,-3.721204 2.575649,-3.721204 z"
         id="path4442"
         inkscape:connector-curvature="0" /></g><g
       id="g4482"
       transform="matrix(1.3003433,0,0,0.86461273,-0.12158055,7.6274402)"
       style="fill:#ffffff;fill-opacity:1"><path
         style="fill:#ffffff;fill-opacity:1;stroke:#b78e4a;stroke-width:0.60888386;stroke-miterlimit:4;stroke-dasharray:none;stroke-opacity:1"
         inkscape:connector-curvature="0"
         id="path20-9-4-9"
         d="m 37.269837,51.361856 0.05217,-0.235187 2.863595,-13.223318 c 0,-1.051866 -0.855692,-1.906506 -1.906317,-1.906506 l -1.555805,0 -0.728482,0 -0.364242,0 -4.02038,0 -0.18578,0 -22.2287804,0 -0.1857812,0 -4.0212957,0 -2.6466969,0 c -1.0542868,0 -1.90723365,0.853714 -1.90723365,1.906506 l 2.86359545,13.223318 0.050336,0.235187 0.081448,0.370376 0.2699789,1.24909 0.5847994,2.701886 c 0,1.052792 0.8538612,1.907431 1.9063165,1.907431 l 28.2369286,0 c 1.05337,0 1.907233,-0.854639 1.907233,-1.907431 l 0.585715,-2.701886 0.270891,-1.24909 z"
         sodipodi:nodetypes="cccsccccccccsccccccsscccc" /></g><path
       d="m 47.146002,58.119144 -41.7123251,0 c -0.5878834,0 -1.063903,0.322633 -1.063903,0.719719 0,0.398689 0.474829,0.719719 1.063903,0.719719 l 41.7135161,0 c 0.586703,0 1.061533,-0.322632 1.061533,-0.720521 -0.0036,-0.396284 -0.47722,-0.718917 -1.062714,-0.718917 z"
       id="path26-5-9"
       inkscape:connector-curvature="0"
       style="fill:none;fill-opacity:1;stroke:#b78e4a;stroke-width:0.64561599;stroke-miterlimit:4;stroke-dasharray:none;stroke-opacity:1" /><g
       transform="matrix(0.02871416,0,0,0.01931681,30.391407,45.541544)"
       id="g4329-9-6-6"
       style="stroke-width:27.41312981;stroke-miterlimit:4;stroke-dasharray:none"><path
         id="path3007-1-3-0"
         style="fill:#b78e4a;fill-opacity:1;fill-rule:nonzero;stroke:none;stroke-width:27.41312981;stroke-miterlimit:4;stroke-dasharray:none"
         d="m -70.409723,237.04431 -28.0125,-0.0867 c -5.895597,-9.34569 -28.195197,-42.3633 -40.400397,-59.4762 -1.4556,-2.0415 -2.7879,-3.8544 -3.9528,-5.3778 -1.569,-2.0448 -2.8416,-3.5601 -3.7182,-4.3815 -0.6024,-0.5661 -1.1988,-1.1052 -1.7895,-1.6254 -0.7443,-0.6564 -1.479,-1.281 -2.2068,-1.8681 0.0762,-0.001 0.1536,-0.001 0.2298,-0.002 0.5754,-0.005 1.1589,-0.008 1.7532,-0.008 22.2303,0 26.3424,4.1451 26.9379,4.9758 7.5831,10.5375 40.839897,59.81604 41.159697,60.3141 l 0.5073,0.78399 9.4923,5.8242 0,0.92814 z m -65.463297,-0.97851 0,0.99141 -43.4496,0 0,-1.02189 10.90077,-7.15665 0,-56.07309 c 0,-0.8178 0.068,-1.6512 0.20274,-2.4762 0.0773,-0.4851 0.17811,-0.9561 0.29532,-1.4028 l 0.42654,-1.2984 c 0.54963,-1.3875 1.28205,-2.3379 1.94649,-2.544 0.0223,-0.006 0.0434,-0.0141 0.0656,-0.021 0.0269,-0.007 0.0656,-0.0141 0.10779,-0.0213 3.84024,1.2705 7.44612,3.504 11.65791,7.2282 1.4964,1.5048 3.1488,3.3165 4.9605,5.5008 0.5298,0.6996 1.1016,1.4754 1.7085,2.3145 l 0,48.82377 11.1774,7.15665 z m 20.9835,-71.67672 c -2.4633,-3.4206 -7.3065,-5.7267 -14.8089,-7.0488 -5.0811,-0.8952 -11.4093,-1.3488 -18.8085,-1.3488 -4.8222,0 -9.1407,0.1971 -11.91219,0.3621 -1.64766,0.0996 -2.9004,0.1947 -3.65976,0.2568 -0.44883,0.0363 -0.79806,0.0678 -1.03242,0.0903 -0.27891,0.0267 -0.53205,0.0702 -0.77463,0.1263 -0.69258,0.0552 -1.36641,0.1758 -2.00154,0.3669 -0.0492,0.0153 -0.0949,0.0294 -0.14181,0.0456 -3.19101,1.0149 -5.67306,3.612 -7.17774,7.5189 l -0.56601,1.7073 -0.0586,0.1959 c -0.20742,0.7545 -0.37851,1.5468 -0.50976,2.3541 -0.20274,1.2588 -0.30588,2.5338 -0.30588,3.7899 l 0,51.63405 -10.90077,7.15545 0,13.68751 59.9004,0 0,-13.71679 -11.175,-7.15782 0,-32.4867 c 10.0734,14.8968 24.8565,35.77029 34.644,51.33397 l 1.206,1.91601 40.790697,0.12422 0,-13.78125 -11.8254,-7.25859 c -4.281,-6.60939 -33.623397,-49.77666 -40.882197,-59.86656"
         inkscape:connector-curvature="0" /><path
         id="path3009-1-6-3"
         style="fill:#b78e4a;fill-opacity:1;fill-rule:nonzero;stroke:none;stroke-width:27.41312981;stroke-miterlimit:4;stroke-dasharray:none"
         d="m -68.485523,62.855586 -9.4899,5.823 -0.5049,0.7806 c -0.3294,0.5085 -33.970497,51.054894 -41.574597,61.572594 -2.1225,2.9331 -11.1375,6.0564 -30.0399,6.4488 1.2633,-1.2117 2.4738,-2.5032 3.7287,-3.8391 0.4782,-0.5085 0.9669,-1.0287 1.4721,-1.5609 1.0008,-1.0512 2.5464,-3.0222 4.446,-5.6049 0.5169,-0.7044 1.0593,-1.4532 1.6254,-2.2419 10.2315,-14.2605 28.6452,-41.411694 31.1133,-45.229794 l 5.5794,-8.4912 -12.4536,-7.6548 0,-0.9294 23.061297,0.0693 23.0367,-0.0693 0,0.927 z m -92.321487,72.448794 c -1.43553,0.7476 -3.05157,1.329 -5.00976,1.7484 -0.59883,-0.3537 -1.20585,-1.2222 -1.68048,-2.4174 l -0.42654,-1.2984 c -0.11721,-0.4467 -0.21798,-0.9177 -0.29532,-1.4028 -0.13476,-0.8262 -0.20274,-1.6593 -0.20274,-2.4762 l 0,-113.934294 -10.90077,-7.1568003 0,-1.0218 32.2722,0 0,114.2156943 c -6.2343,7.8948 -10.75893,11.8053 -13.75659,13.7436 z m 37.99569,-81.627894 0,13.7799 9.15,5.6238 -0.9492,1.4451 c -4.9617,7.6767 -15.9081,23.146796 -24.2121,35.316594 l 0,-110.72219421 -48.7254,0 0,13.68750021 10.90077,7.1568 0,109.493994 c 0,1.2552 0.10314,2.5302 0.30588,3.7899 0.13125,0.8061 0.30234,1.5984 0.50976,2.3541 l 0.55428,1.7064 0.0703,0.1956 c 1.49649,3.8871 3.95976,6.4794 7.15314,7.5117 l 0.16641,0.0528 c 0.56601,0.171 1.16952,0.2766 1.79412,0.3258 0.0199,0.001 0.0375,0.005 0.0563,0.006 0.0246,0.001 0.0516,0.003 0.0785,0.006 0.15588,0.0105 0.36564,0.0246 0.62931,0.0411 0.51798,0.0294 1.37694,0.0762 2.53242,0.1242 1.93359,0.0807 5.00274,0.177 8.63553,0.177 8.652,0 16.1661,-0.5181 22.3359,-1.5375 9.4722,-1.5669 15.5028,-4.3008 18.4371,-8.3592 7.2927,-10.0851 36.951597,-54.434694 41.301597,-61.133094 l 11.829,-7.2597 0,-13.7823 -31.2645,0.0948 -31.289097,-0.0948"
         inkscape:connector-curvature="0" /></g></g></svg>