<?xml version="1.0" encoding="UTF-8" standalone="no"?>
<svg
   xmlns:dc="http://purl.org/dc/elements/1.1/"
   xmlns:cc="http://creativecommons.org/ns#"
   xmlns:rdf="http://www.w3.org/1999/02/22-rdf-syntax-ns#"
   xmlns:svg="http://www.w3.org/2000/svg"
   xmlns="http://www.w3.org/2000/svg"
   xmlns:sodipodi="http://sodipodi.sourceforge.net/DTD/sodipodi-0.dtd"
   xmlns:inkscape="http://www.inkscape.org/namespaces/inkscape"
   viewBox="0 0 59.99831 60"
   version="1.1"
   x="0px"
   y="0px"
   id="svg2"
   inkscape:version="0.91 r13725"
   sodipodi:docname="intership.svg"
   width="59.99831"
   height="60">
  <metadata
     id="metadata56">
    <rdf:RDF>
      <cc:Work
         rdf:about="">
        <dc:format>image/svg+xml</dc:format>
        <dc:type
           rdf:resource="http://purl.org/dc/dcmitype/StillImage" />
        <dc:title>business_026-network-connection-structure-organization-relation</dc:title>
      </cc:Work>
    </rdf:RDF>
  </metadata>
  <defs
     id="defs54" />
  <sodipodi:namedview
     pagecolor="#ffffff"
     bordercolor="#666666"
     borderopacity="1"
     objecttolerance="10"
     gridtolerance="10"
     guidetolerance="10"
     inkscape:pageopacity="0"
     inkscape:pageshadow="2"
     inkscape:window-width="1920"
     inkscape:window-height="1051"
     id="namedview52"
     showgrid="false"
     fit-margin-top="0"
     fit-margin-left="0"
     fit-margin-right="0"
     fit-margin-bottom="0"
     inkscape:zoom="2.2250293"
     inkscape:cx="-117.31838"
     inkscape:cy="-80.678807"
     inkscape:window-x="-9"
     inkscape:window-y="-9"
     inkscape:window-maximized="1"
     inkscape:current-layer="svg2" />
  <title
     id="title4">business_026-network-connection-structure-organization-relation</title>
  <desc
     id="desc6">Created with Sketch.</desc>
  <path
     style="fill:none;fill-opacity:1;stroke:#b78e4a;stroke-width:1;stroke-opacity:1;stroke-miterlimit:4;stroke-dasharray:none"
     d="M 29.999155,0.43281019 A 29.566995,29.566995 0 0 0 0.43281021,29.999154 29.566995,29.566995 0 0 0 29.999155,59.56719 29.566995,29.566995 0 0 0 59.5655,29.999154 29.566995,29.566995 0 0 0 29.999155,0.43281019 Z M 25.312632,3.9527776 A 9.920158,29.566995 0 0 0 20.820536,18.842457 l -14.7966979,0 A 26.474624,26.474624 0 0 1 25.312632,3.9527776 Z m 9.371355,0.01524 A 26.474624,26.474624 0 0 1 53.972781,18.842488 l -14.793317,0 A 9.920158,29.566995 0 0 0 34.683987,3.9680116 Z m -4.684832,3.058414 a 7.7078717,22.973284 0 0 1 6.727154,11.8160524 l -13.462762,0 A 7.7078717,22.973284 0 0 1 29.999155,7.0264316 Z M 4.5614132,22.74792 l 15.8296948,0 a 9.920158,29.566995 0 0 0 -0.312775,7.251261 9.920158,29.566995 0 0 0 0.316156,7.252952 l -15.8499822,0 A 26.474624,26.474624 0 0 1 3.5250354,29.99918 26.474624,26.474624 0 0 1 4.5614132,22.747919 Z m 18.1306888,0 14.610724,0 a 7.7078717,22.973284 0 0 1 0.40407,7.251261 7.7078717,22.973284 0 0 1 -0.400688,7.252952 l -14.610724,0 a 7.7078717,22.973284 0 0 1 -0.40407,-7.252978 7.7078717,22.973284 0 0 1 0.400688,-7.251261 z m 16.910028,0 15.848292,0 a 26.474624,26.474624 0 0 1 1.022851,7.251261 26.474624,26.474624 0 0 1 -1.036377,7.252952 l -15.829694,0 A 9.920158,29.566995 0 0 0 39.918285,29.99918 9.920158,29.566995 0 0 0 39.60213,22.747919 Z m -33.5782919,18.409648 14.7933169,0 A 9.920158,29.566995 0 0 0 25.314323,56.033727 26.474624,26.474624 0 0 1 6.0238381,41.157568 Z m 17.2481619,0 13.462763,0 A 7.7078717,22.973284 0 0 1 29.999155,52.973623 7.7078717,22.973284 0 0 1 23.272,41.157568 Z m 15.907464,0 14.795007,0 A 26.474624,26.474624 0 0 1 34.685677,56.047252 9.920158,29.566995 0 0 0 39.179464,41.157568 Z"
     id="ellipse4156-1"
     inkscape:connector-curvature="0" />
</svg>
