<?xml version="1.0" encoding="UTF-8" standalone="no"?>
<svg
   xmlns:dc="http://purl.org/dc/elements/1.1/"
   xmlns:cc="http://creativecommons.org/ns#"
   xmlns:rdf="http://www.w3.org/1999/02/22-rdf-syntax-ns#"
   xmlns:svg="http://www.w3.org/2000/svg"
   xmlns="http://www.w3.org/2000/svg"
   xmlns:sodipodi="http://sodipodi.sourceforge.net/DTD/sodipodi-0.dtd"
   xmlns:inkscape="http://www.inkscape.org/namespaces/inkscape"
   version="1.1"
   x="0px"
   y="0px"
   viewBox="0 0 60 60"
   enable-background="new 0 0 72 72"
   xml:space="preserve"
   id="svg2"
   inkscape:version="0.91 r13725"
   sodipodi:docname="job.svg"
   width="60"
   height="60"><metadata
     id="metadata22"><rdf:RDF><cc:Work
         rdf:about=""><dc:format>image/svg+xml</dc:format><dc:type
           rdf:resource="http://purl.org/dc/dcmitype/StillImage" /><dc:title></dc:title></cc:Work></rdf:RDF></metadata><defs
     id="defs20" /><sodipodi:namedview
     pagecolor="#ffffff"
     bordercolor="#666666"
     borderopacity="1"
     objecttolerance="10"
     gridtolerance="10"
     guidetolerance="10"
     inkscape:pageopacity="0"
     inkscape:pageshadow="2"
     inkscape:window-width="1920"
     inkscape:window-height="1051"
     id="namedview18"
     showgrid="false"
     fit-margin-top="0"
     fit-margin-left="0"
     fit-margin-right="0"
     fit-margin-bottom="0"
     inkscape:zoom="2.6222222"
     inkscape:cx="-22.409746"
     inkscape:cy="26.875"
     inkscape:window-x="-9"
     inkscape:window-y="-9"
     inkscape:window-maximized="1"
     inkscape:current-layer="svg2" /><ellipse
     cx="29.957413"
     cy="4.580864"
     id="circle8"
     style="fill:none;fill-opacity:1;stroke:#b78e4a;stroke-width:1;stroke-miterlimit:4;stroke-dasharray:none;stroke-opacity:1"
     rx="4.3439317"
     ry="4.2643948" /><path
     d="m 37.623174,10.51757 -2.895955,0 -2.299728,0 c -0.08518,0 -0.08518,0 -0.17035,0.08362 -0.255526,0.250847 -1.277627,1.33785 -1.277627,1.33785 -0.08518,0.08361 -0.17035,0.250846 -0.17035,0.418077 l 0.681401,9.448561 c 0,0.167231 -0.08517,0.334462 -0.170351,0.418078 l -0.936926,0.919772 c -0.255526,0.167231 -0.596226,0.167231 -0.766576,0 l -0.936926,-0.919772 c -0.08517,-0.08362 -0.170351,-0.250847 -0.170351,-0.418078 l 0.596227,-9.448561 c 0,-0.167231 -0.08517,-0.334462 -0.170351,-0.418077 0,0 -1.022101,-1.003387 -1.277627,-1.33785 0,-0.08362 -0.08517,-0.08362 -0.170351,-0.08362 l -2.299728,0 -2.895954,0 c -0.936927,0 -1.788678,1.003387 -1.788678,2.257621 l 0,11.53895 c 0,1.087002 0.596227,2.090389 1.362803,2.25762 1.107277,0.334462 2.129377,-0.836155 2.129377,-2.25762 l 0,-7.274556 c 0,-0.418078 0.255526,-0.75254 0.596227,-0.75254 l 0,0 c 0.3407,0 0.596225,0.334462 0.596225,0.75254 l 0,8.277942 0,1.170619 0,12.040643 c 0,1.087003 0.596226,2.09039 1.362802,2.257621 1.107277,0.334462 2.129379,-0.836156 2.129379,-2.257621 l 0,-10.451947 c 0,-0.836156 0.51105,-1.588696 1.192452,-1.588696 0.6814,0 1.192451,0.668924 1.192451,1.588696 l 0,10.451947 c 0,1.087003 0.596226,2.09039 1.362802,2.257621 1.107276,0.334462 2.129378,-0.836156 2.129378,-2.257621 l 0,-11.957028 0,-1.170618 0,-8.277942 c 0,-0.418078 0.255526,-0.75254 0.596226,-0.75254 0.3407,0 0.596226,0.334462 0.596226,0.75254 l 0,7.19094 c 0,1.087002 0.596226,2.090389 1.362802,2.25762 1.107277,0.334462 2.129378,-0.836155 2.129378,-2.25762 l 0,-11.53895 C 39.326676,11.520957 38.5601,10.51757 37.623174,10.51757 Z"
     id="path10"
     inkscape:connector-curvature="0"
     style="fill:none;fill-opacity:1;stroke:#b78e4a;stroke-width:1;stroke-miterlimit:4;stroke-dasharray:none;stroke-opacity:1" /><path
     style="fill:none;fill-opacity:1;stroke:#b78e4a;stroke-width:1;stroke-miterlimit:4;stroke-dasharray:none;stroke-opacity:1"
     inkscape:connector-curvature="0"
     id="path12"
     d="m 41.71158,48.479043 0,-3.846316 c 0,-0.585309 -0.511051,-1.087003 -1.107277,-1.087003 l -21.293781,0 c -0.596226,0 -1.107277,0.501694 -1.107277,1.087003 l 0,3.846316 c 0,0.58531 -0.51105,1.087003 -1.107277,1.087003 l -15.6722224,0 c -0.5962258,0 -1.10727656,0.501693 -1.10727656,1.087003 l 0,7.94348 c 0,0.585308 0.51105076,1.087002 1.10727656,1.087002 l 16.7794994,0 23.59351,0 16.7795,0 c 0.596225,0 1.107276,-0.501694 1.107276,-1.087002 l 0,-7.94348 c 0,-0.58531 -0.511051,-1.087003 -1.107276,-1.087003 l -15.757398,0 c -0.596227,0 -1.107277,-0.501693 -1.107277,-1.087003 z" /></svg>