<?xml version="1.0" encoding="UTF-8" standalone="no"?>
<svg
   xmlns:dc="http://purl.org/dc/elements/1.1/"
   xmlns:cc="http://creativecommons.org/ns#"
   xmlns:rdf="http://www.w3.org/1999/02/22-rdf-syntax-ns#"
   xmlns:svg="http://www.w3.org/2000/svg"
   xmlns="http://www.w3.org/2000/svg"
   xmlns:sodipodi="http://sodipodi.sourceforge.net/DTD/sodipodi-0.dtd"
   xmlns:inkscape="http://www.inkscape.org/namespaces/inkscape"
   version="1.1"
   x="0px"
   y="0px"
   viewBox="0 0 60.012001 59.986713"
   enable-background="new 0 0 72 72"
   xml:space="preserve"
   id="svg2"
   inkscape:version="0.91 r13725"
   sodipodi:docname="project.svg"
   width="60.012001"
   height="59.986713"><metadata
     id="metadata28"><rdf:RDF><cc:Work
         rdf:about=""><dc:format>image/svg+xml</dc:format><dc:type
           rdf:resource="http://purl.org/dc/dcmitype/StillImage" /><dc:title></dc:title></cc:Work></rdf:RDF></metadata><defs
     id="defs26" /><sodipodi:namedview
     pagecolor="#ffffff"
     bordercolor="#666666"
     borderopacity="1"
     objecttolerance="10"
     gridtolerance="10"
     guidetolerance="10"
     inkscape:pageopacity="0"
     inkscape:pageshadow="2"
     inkscape:window-width="1920"
     inkscape:window-height="1051"
     id="namedview24"
     showgrid="false"
     fit-margin-top="0"
     fit-margin-left="0"
     fit-margin-right="0"
     fit-margin-bottom="0"
     inkscape:zoom="2.6222222"
     inkscape:cx="-26.932749"
     inkscape:cy="23.723406"
     inkscape:window-x="-9"
     inkscape:window-y="-9"
     inkscape:window-maximized="1"
     inkscape:current-layer="svg2" /><path
     id="path10-0"
     d="m 32.389811,59.62668 c -2.635774,0 -2.635774,0 -1.97683,-3.08082 2.306303,-9.370822 4.612605,-18.613278 6.91891,-27.984101 0.329471,-1.283676 0.658944,-1.797143 1.97683,-1.797143 3.734016,0.128377 3.734016,0.128377 2.635778,4.364491 -2.196482,8.60062 -4.283137,17.201238 -6.479615,25.801858 -0.658945,2.695715 -0.658945,2.695715 -3.075073,2.695715 z"
     inkscape:connector-curvature="0"
     style="fill:none;fill-opacity:1;stroke:#b78e4a;stroke-width:1;stroke-miterlimit:4;stroke-dasharray:none;stroke-opacity:1" /><path
     id="path12"
     d="m 19.65023,43.580749 c 2.525953,1.155307 4.942079,2.438983 7.468031,3.465922 1.208062,0.513469 1.757183,1.155307 1.647359,2.695714 -0.109829,3.337555 0,3.337555 -2.635774,2.053881 -3.734016,-1.797143 -7.46803,-3.594288 -11.202047,-5.391433 -2.086654,-1.026939 -2.086654,-1.026939 -2.086654,-3.59429 0,-0.898571 0.219638,-1.41204 0.988415,-1.797144 4.612606,-2.182245 9.225214,-4.492858 13.837819,-6.675103 0.768767,-0.385105 0.988418,-0.256751 1.098241,0.770202 0.219638,3.851022 0.219638,3.851022 -2.7456,5.263065 -2.086654,0.898573 -4.063486,1.925512 -6.150142,2.952453 -0.10983,-0.128377 -0.10983,0 -0.21964,0.256724 z"
     inkscape:connector-curvature="0"
     style="fill:none;fill-opacity:1;stroke:#b78e4a;stroke-width:1;stroke-miterlimit:4;stroke-dasharray:none;stroke-opacity:1" /><path
     id="path14"
     d="m 53.256367,43.452383 c -2.306305,-1.155308 -4.392959,-2.182247 -6.36979,-3.08082 -0.109829,0 -0.219661,0 -0.329473,-0.128377 -2.416128,-1.155308 -3.075072,-2.567349 -2.525952,-5.648166 0.219639,-1.02694 0.549121,-0.513473 0.988416,-0.256724 2.745601,1.283673 5.491199,2.695714 8.236799,3.97939 1.757182,0.898572 3.514366,1.797145 5.271551,2.567347 1.317885,0.513471 0.988416,1.797145 1.098239,2.824083 0.109831,1.026941 -0.10983,1.66878 -1.098239,2.182247 -4.39296,2.053881 -8.676095,4.236128 -13.069053,6.290006 -1.427713,0.770205 -1.317889,0.641839 -1.537537,-1.155305 -0.219638,-2.310616 0.329473,-3.722658 2.416129,-4.364496 2.306302,-0.770205 4.392958,-1.925511 6.91891,-3.209185 z"
     inkscape:connector-curvature="0"
     style="fill:none;fill-opacity:1;stroke:#b78e4a;stroke-width:1;stroke-miterlimit:4;stroke-dasharray:none;stroke-opacity:1" /><g
     id="g4157"
     transform="matrix(1.4303109,0,0,1.3439849,-14.369164,-17.204571)"
     style="fill:none;fill-opacity:1;stroke:#b78e4a;stroke-width:0.72125291;stroke-miterlimit:4;stroke-dasharray:none;stroke-opacity:1"><path
       style="fill:none;fill-opacity:1;stroke:#b78e4a;stroke-width:0.72125291;stroke-miterlimit:4;stroke-dasharray:none;stroke-opacity:1"
       inkscape:connector-curvature="0"
       id="path8"
       d="m 32.643014,20.830142 c -1.509131,-0.323385 -2.640979,-1.185746 -3.503339,-2.479286 -0.43118,-0.646771 -0.970156,-1.239643 -1.563028,-1.670824 -1.077951,-0.754565 -2.209799,-1.401335 -3.395544,-1.994208 -3.611135,-1.724721 -7.330064,-2.155901 -11.156788,-0.916258 -0.0539,0 -0.161692,0.0539 -0.21559,0.107795 -0.43118,0.377283 -0.21559,1.024053 0.377283,1.077951 0.0539,0 0.107795,0 0.161692,0 1.616926,-0.161693 3.179954,-0.0539 4.689085,0.700667 2.748774,1.455234 3.395544,3.880622 1.670823,6.467704 -0.323385,0.485077 -0.64677,0.916257 -0.970155,1.401335 -0.21559,0.323385 -0.21559,0.646771 -0.107795,0.970156 0.107795,0.21559 0.107795,0.43118 -0.0539,0.592872 -2.640979,3.880622 -5.281957,7.707346 -7.922936,11.53407 0,0.0539 -0.0539,0.0539 -0.0539,0.107795 -0.431181,0.538975 -0.377283,1.239643 0.0539,1.724721 0.64677,0.700668 1.347438,1.29354 2.263696,1.616925 0.64677,0.215591 1.024053,0.161693 1.509131,-0.485077 2.694876,-3.934519 5.44365,-7.869039 8.138526,-11.803558 0.107795,-0.161692 0.269487,-0.269488 0.485078,-0.269488 0.21559,0 0.43118,-0.107795 0.592872,-0.269487 0.485078,-0.485078 0.970156,-0.970155 1.509131,-1.239643 0.754565,-0.43118 1.670823,-0.754565 2.479286,-0.64677 0.538975,0.0539 1.024053,0.485078 1.509131,0.916258 0.323385,0.269488 0.754565,0.21559 1.024053,-0.161693 l 2.964363,-4.204007 c 0.215591,-0.377282 0,-0.970155 -0.485077,-1.07795 z" /><path
       style="fill:none;fill-opacity:1;stroke:#b78e4a;stroke-width:0.72125291;stroke-miterlimit:4;stroke-dasharray:none;stroke-opacity:1"
       inkscape:connector-curvature="0"
       id="path10"
       d="m 34.583325,21.53081 c 0.21559,-0.323385 0.64677,-0.377283 0.970155,-0.161693 0.161693,0.107795 0.323385,0.21559 0.485078,0.323385 0.592872,0.485078 0.754565,1.077951 0.323385,1.724721 -1.185746,1.724721 -2.317594,3.395544 -3.557237,5.066367 -0.592872,0.808463 -1.185745,0.754565 -2.209798,-0.0539 -0.269488,-0.21559 -0.323385,-0.64677 -0.107795,-0.916258 l 4.096212,-5.982624 z" /></g></svg>