<?xml version="1.0" encoding="UTF-8" standalone="no"?>
<svg
   xmlns:dc="http://purl.org/dc/elements/1.1/"
   xmlns:cc="http://creativecommons.org/ns#"
   xmlns:rdf="http://www.w3.org/1999/02/22-rdf-syntax-ns#"
   xmlns:svg="http://www.w3.org/2000/svg"
   xmlns="http://www.w3.org/2000/svg"
   xmlns:sodipodi="http://sodipodi.sourceforge.net/DTD/sodipodi-0.dtd"
   xmlns:inkscape="http://www.inkscape.org/namespaces/inkscape"
   version="1.1"
   x="0px"
   y="0px"
   viewBox="0 0 59.973969 59.879795"
   enable-background="new 0 0 100 100"
   xml:space="preserve"
   id="svg2"
   inkscape:version="0.91 r13725"
   sodipodi:docname="rocket.svg"
   width="59.973969"
   height="59.879795"><metadata
     id="metadata924"><rdf:RDF><cc:Work
         rdf:about=""><dc:format>image/svg+xml</dc:format><dc:type
           rdf:resource="http://purl.org/dc/dcmitype/StillImage" /><dc:title></dc:title></cc:Work></rdf:RDF></metadata><defs
     id="defs922" /><sodipodi:namedview
     pagecolor="#ffffff"
     bordercolor="#666666"
     borderopacity="1"
     objecttolerance="10"
     gridtolerance="10"
     guidetolerance="10"
     inkscape:pageopacity="0"
     inkscape:pageshadow="2"
     inkscape:window-width="1920"
     inkscape:window-height="1051"
     id="namedview920"
     showgrid="false"
     fit-margin-top="0"
     fit-margin-left="0"
     fit-margin-right="0"
     fit-margin-bottom="0"
     inkscape:zoom="3.776"
     inkscape:cx="12.399394"
     inkscape:cy="13.460891"
     inkscape:window-x="-9"
     inkscape:window-y="-9"
     inkscape:window-maximized="1"
     inkscape:current-layer="g4147" /><g
     id="g4147"
     transform="translate(25.294983,-55.620102)"><g
       id="g4209"
       transform="matrix(0.44135275,0.44138254,-0.44135275,0.44138254,24.241719,45.658569)"
       style="stroke-width:1.60208114;stroke-miterlimit:4;stroke-dasharray:none"><path
         style="fill:none;fill-opacity:1;stroke:#b78e4a;stroke-width:1.60208114;stroke-miterlimit:4;stroke-dasharray:none;stroke-opacity:1"
         id="path914"
         d="m 16.917606,79.966951 11.853844,0 C 36.326329,64.214733 46.220822,32.094408 23.091929,-0.03298882 23.09142,-0.03369593 -4.6668153,38.535443 16.917606,79.966951 Z M 28.850354,28.966874 c 5.09e-4,4.417296 -2.578362,7.999499 -5.758425,7.998792 -3.181591,0 -5.759443,-3.580788 -5.758934,-7.999499 -5.09e-4,-4.417296 2.577852,-8.000206 5.758934,-7.999499 3.180063,-7.07e-4 5.758934,3.581496 5.758425,8.000206 z"
         inkscape:connector-curvature="0" /><g
         transform="matrix(0.70710678,-0.70710678,0.70710678,0.70710678,-47.006265,67.405199)"
         id="g890"
         style="fill:none;fill-opacity:1;stroke:#b78e4a;stroke-width:1.60208115;stroke-miterlimit:4;stroke-dasharray:none;stroke-opacity:1"><path
           inkscape:connector-curvature="0"
           d="m 17.343,78.828 c -0.78,0.781 -0.781,2.047 0,2.828 0.78,0.781 2.048,0.781 2.828,0 l 8.485,-8.484 c 0.781,-0.781 0.781,-2.048 0,-2.828 -0.781,-0.781 -2.047,-0.781 -2.828,0 l -8.485,8.484 z"
           id="path892"
           style="fill:none;fill-opacity:1;stroke:#b78e4a;stroke-width:1.60208115;stroke-miterlimit:4;stroke-dasharray:none;stroke-opacity:1" /><path
           inkscape:connector-curvature="0"
           d="m 40.678,55.494 -8.485,8.484 c -0.781,0.781 -0.782,2.048 -10e-4,2.829 0.781,0.78 2.048,0.78 2.829,-0.001 l 8.485,-8.484 c 0.781,-0.781 0.781,-2.048 0,-2.828 -0.781,-0.781 -2.047,-0.781 -2.828,0 z"
           id="path894"
           style="fill:none;fill-opacity:1;stroke:#b78e4a;stroke-width:1.60208115;stroke-miterlimit:4;stroke-dasharray:none;stroke-opacity:1" /><path
           inkscape:connector-curvature="0"
           d="m 13.807,85.192 c -0.781,-0.781 -2.047,-0.78 -2.828,0 l -8.484,8.485 c -0.781,0.781 -0.781,2.047 0,2.828 0.78,0.781 2.047,0.781 2.828,0 l 8.484,-8.485 c 0.781,-0.78 0.781,-2.047 0,-2.828 z"
           id="path896"
           style="fill:none;fill-opacity:1;stroke:#b78e4a;stroke-width:1.60208115;stroke-miterlimit:4;stroke-dasharray:none;stroke-opacity:1" /><path
           inkscape:connector-curvature="0"
           d="m 10.109,80.404 2.445,-2.445 c 1.084,-1.084 2.604,-1.508 4.141,-1.312 l 2.807,-2.807 c -2.994,-1.193 -6.299,-0.771 -8.458,1.387 l -3.667,3.667 c -2.158,2.159 -2.58,5.464 -1.387,8.458 l 2.807,-2.807 c -0.194,-1.537 0.228,-3.057 1.312,-4.141 z"
           id="path898"
           style="fill:none;fill-opacity:1;stroke:#b78e4a;stroke-width:1.60208115;stroke-miterlimit:4;stroke-dasharray:none;stroke-opacity:1" /><path
           inkscape:connector-curvature="0"
           d="m 21.04,86.445 -2.444,2.444 c -1.084,1.084 -2.604,1.507 -4.143,1.312 l -2.806,2.806 c 2.994,1.193 6.3,0.772 8.458,-1.387 l 3.666,-3.666 c 2.159,-2.158 2.58,-5.464 1.387,-8.458 l -2.806,2.806 c 0.196,1.538 -0.228,3.059 -1.312,4.143 z"
           id="path900"
           style="fill:none;fill-opacity:1;stroke:#b78e4a;stroke-width:1.60208115;stroke-miterlimit:4;stroke-dasharray:none;stroke-opacity:1" /><path
           inkscape:connector-curvature="0"
           d="m 24.959,65.555 2.445,-2.445 c 1.084,-1.083 2.604,-1.506 4.141,-1.312 l 2.807,-2.806 C 31.357,57.8 28.051,58.221 25.894,60.378 l -3.667,3.668 c -2.158,2.158 -2.58,5.463 -1.387,8.457 l 2.807,-2.806 c -0.196,-1.538 0.228,-3.058 1.312,-4.142 z"
           id="path902"
           style="fill:none;fill-opacity:1;stroke:#b78e4a;stroke-width:1.60208115;stroke-miterlimit:4;stroke-dasharray:none;stroke-opacity:1" /><path
           inkscape:connector-curvature="0"
           d="m 35.89,71.596 -2.445,2.445 c -1.084,1.084 -2.604,1.507 -4.142,1.312 l -2.806,2.805 c 2.994,1.193 6.299,0.773 8.458,-1.386 l 3.666,-3.667 c 2.158,-2.158 2.58,-5.463 1.387,-8.457 l -2.806,2.805 c 0.194,1.539 -0.229,3.059 -1.312,4.143 z"
           id="path904"
           style="fill:none;fill-opacity:1;stroke:#b78e4a;stroke-width:1.60208115;stroke-miterlimit:4;stroke-dasharray:none;stroke-opacity:1" /></g><path
         style="fill:none;fill-opacity:1;stroke:#b78e4a;stroke-width:1.60208114;stroke-miterlimit:4;stroke-dasharray:none;stroke-opacity:1"
         id="path908"
         d="m 9.89237,51.965522 5.09e-4,25.001175 -7.1990488,9.000055 C -4.5057282,63.966539 3.4136333,51.96623 3.4136333,51.96623 L 9.89237,51.965522 Z"
         inkscape:connector-curvature="0" /><path
         style="fill:none;fill-opacity:1;stroke:#b78e4a;stroke-width:1.60208114;stroke-miterlimit:4;stroke-dasharray:none;stroke-opacity:1"
         id="path910"
         d="m 35.570157,51.96623 5.09e-4,24.99976 7.127782,8.998641 C 49.898006,63.965832 41.907377,51.965522 41.907377,51.965522 l -6.33722,7.08e-4 z"
         inkscape:connector-curvature="0" /></g></g></svg>