<?xml version="1.0" encoding="UTF-8" standalone="no"?>
<svg
   xmlns:dc="http://purl.org/dc/elements/1.1/"
   xmlns:cc="http://creativecommons.org/ns#"
   xmlns:rdf="http://www.w3.org/1999/02/22-rdf-syntax-ns#"
   xmlns:svg="http://www.w3.org/2000/svg"
   xmlns="http://www.w3.org/2000/svg"
   xmlns:sodipodi="http://sodipodi.sourceforge.net/DTD/sodipodi-0.dtd"
   xmlns:inkscape="http://www.inkscape.org/namespaces/inkscape"
   version="1.1"
   x="0px"
   y="0px"
   viewBox="0 0 59.999998 60.010135"
   enable-background="new 0 0 100 100"
   xml:space="preserve"
   id="svg2"
   inkscape:version="0.91 r13725"
   sodipodi:docname="class.svg"
   width="60"
   height="60.010136"><metadata
     id="metadata44"><rdf:RDF><cc:Work
         rdf:about=""><dc:format>image/svg+xml</dc:format><dc:type
           rdf:resource="http://purl.org/dc/dcmitype/StillImage" /><dc:title></dc:title></cc:Work></rdf:RDF></metadata><defs
     id="defs42" /><sodipodi:namedview
     pagecolor="#ffffff"
     bordercolor="#666666"
     borderopacity="1"
     objecttolerance="10"
     gridtolerance="10"
     guidetolerance="10"
     inkscape:pageopacity="0"
     inkscape:pageshadow="2"
     inkscape:window-width="1920"
     inkscape:window-height="1051"
     id="namedview40"
     showgrid="false"
     inkscape:zoom="3.776"
     inkscape:cx="20.759601"
     inkscape:cy="24.682432"
     inkscape:window-x="-9"
     inkscape:window-y="-9"
     inkscape:window-maximized="1"
     inkscape:current-layer="g4412"
     fit-margin-top="0"
     fit-margin-left="0"
     fit-margin-right="0"
     fit-margin-bottom="0" /><g
     id="g4412"
     transform="matrix(1.151735,0,0,1.4126744,-0.54239475,-25.214849)"><path
       sodipodi:nodetypes="cccsccccccccsccccccsscccc"
       d="m 48.603418,49.085686 0.06793,-0.299415 3.728971,-16.834471 c 0,-1.339118 -1.114282,-2.427152 -2.482405,-2.427152 l -2.025967,0 -0.948629,0 -0.474315,0 -5.235336,0 -0.241923,0 -28.946296,0 -0.241925,0 -5.2365275,0 -3.4465261,0 c -1.3728903,0 -2.48359669,1.086854 -2.48359669,2.427152 l 3.72897019,16.834471 0.065546,0.299415 0.1060653,0.471521 0.3515651,1.590204 0.7615253,3.439744 c 0,1.340297 1.1118972,2.428331 2.4824047,2.428331 l 36.7701017,0 c 1.371698,0 2.483596,-1.088034 2.483596,-2.428331 l 0.762717,-3.439744 0.352756,-1.590204 z"
       id="path20-9-4-9"
       inkscape:connector-curvature="0"
       style="fill:none;fill-opacity:1;stroke:#b78e4a;stroke-width:0.78397584;stroke-miterlimit:4;stroke-dasharray:none;stroke-opacity:1" /><path
       d="m 47.405714,58.043401 -41.7718557,0 c -0.5887219,0 -1.0654204,0.475057 -1.0654204,1.059743 0,0.587044 0.4755062,1.059743 1.0654204,1.059743 l 41.7730467,0 c 0.587542,0 1.063049,-0.475057 1.063049,-1.060923 -0.0036,-0.583506 -0.477902,-1.058563 -1.064229,-1.058563 z"
       id="path26-5-9"
       inkscape:connector-curvature="0"
       style="fill:none;fill-opacity:1;stroke:#b78e4a;stroke-width:0.78397584;stroke-miterlimit:4;stroke-dasharray:none;stroke-opacity:1" /><g
       transform="matrix(0.02875513,0,0,0.02844283,30.627206,39.523649)"
       id="g4329-9-6-6"
       style="stroke-width:27.41312899;stroke-miterlimit:4;stroke-dasharray:none"><path
         id="path3007-1-3-0"
         style="fill:#b78e4a;fill-opacity:1;fill-rule:nonzero;stroke:none;stroke-width:27.41312899;stroke-miterlimit:4;stroke-dasharray:none"
         d="m -70.409723,237.04431 -28.0125,-0.0867 c -5.895597,-9.34569 -28.195197,-42.3633 -40.400397,-59.4762 -1.4556,-2.0415 -2.7879,-3.8544 -3.9528,-5.3778 -1.569,-2.0448 -2.8416,-3.5601 -3.7182,-4.3815 -0.6024,-0.5661 -1.1988,-1.1052 -1.7895,-1.6254 -0.7443,-0.6564 -1.479,-1.281 -2.2068,-1.8681 0.0762,-0.001 0.1536,-0.001 0.2298,-0.002 0.5754,-0.005 1.1589,-0.008 1.7532,-0.008 22.2303,0 26.3424,4.1451 26.9379,4.9758 7.5831,10.5375 40.839897,59.81604 41.159697,60.3141 l 0.5073,0.78399 9.4923,5.8242 0,0.92814 z m -65.463297,-0.97851 0,0.99141 -43.4496,0 0,-1.02189 10.90077,-7.15665 0,-56.07309 c 0,-0.8178 0.068,-1.6512 0.20274,-2.4762 0.0773,-0.4851 0.17811,-0.9561 0.29532,-1.4028 l 0.42654,-1.2984 c 0.54963,-1.3875 1.28205,-2.3379 1.94649,-2.544 0.0223,-0.006 0.0434,-0.0141 0.0656,-0.021 0.0269,-0.007 0.0656,-0.0141 0.10779,-0.0213 3.84024,1.2705 7.44612,3.504 11.65791,7.2282 1.4964,1.5048 3.1488,3.3165 4.9605,5.5008 0.5298,0.6996 1.1016,1.4754 1.7085,2.3145 l 0,48.82377 11.1774,7.15665 z m 20.9835,-71.67672 c -2.4633,-3.4206 -7.3065,-5.7267 -14.8089,-7.0488 -5.0811,-0.8952 -11.4093,-1.3488 -18.8085,-1.3488 -4.8222,0 -9.1407,0.1971 -11.91219,0.3621 -1.64766,0.0996 -2.9004,0.1947 -3.65976,0.2568 -0.44883,0.0363 -0.79806,0.0678 -1.03242,0.0903 -0.27891,0.0267 -0.53205,0.0702 -0.77463,0.1263 -0.69258,0.0552 -1.36641,0.1758 -2.00154,0.3669 -0.0492,0.0153 -0.0949,0.0294 -0.14181,0.0456 -3.19101,1.0149 -5.67306,3.612 -7.17774,7.5189 l -0.56601,1.7073 -0.0586,0.1959 c -0.20742,0.7545 -0.37851,1.5468 -0.50976,2.3541 -0.20274,1.2588 -0.30588,2.5338 -0.30588,3.7899 l 0,51.63405 -10.90077,7.15545 0,13.68751 59.9004,0 0,-13.71679 -11.175,-7.15782 0,-32.4867 c 10.0734,14.8968 24.8565,35.77029 34.644,51.33397 l 1.206,1.91601 40.790697,0.12422 0,-13.78125 -11.8254,-7.25859 c -4.281,-6.60939 -33.623397,-49.77666 -40.882197,-59.86656"
         inkscape:connector-curvature="0" /><path
         id="path3009-1-6-3"
         style="fill:#b78e4a;fill-opacity:1;fill-rule:nonzero;stroke:none;stroke-width:27.41312899;stroke-miterlimit:4;stroke-dasharray:none"
         d="m -68.485523,62.855586 -9.4899,5.823 -0.5049,0.7806 c -0.3294,0.5085 -33.970497,51.054894 -41.574597,61.572594 -2.1225,2.9331 -11.1375,6.0564 -30.0399,6.4488 1.2633,-1.2117 2.4738,-2.5032 3.7287,-3.8391 0.4782,-0.5085 0.9669,-1.0287 1.4721,-1.5609 1.0008,-1.0512 2.5464,-3.0222 4.446,-5.6049 0.5169,-0.7044 1.0593,-1.4532 1.6254,-2.2419 10.2315,-14.2605 28.6452,-41.411694 31.1133,-45.229794 l 5.5794,-8.4912 -12.4536,-7.6548 0,-0.9294 23.061297,0.0693 23.0367,-0.0693 0,0.927 z m -92.321487,72.448794 c -1.43553,0.7476 -3.05157,1.329 -5.00976,1.7484 -0.59883,-0.3537 -1.20585,-1.2222 -1.68048,-2.4174 l -0.42654,-1.2984 c -0.11721,-0.4467 -0.21798,-0.9177 -0.29532,-1.4028 -0.13476,-0.8262 -0.20274,-1.6593 -0.20274,-2.4762 l 0,-113.934294 -10.90077,-7.1568003 0,-1.0218 32.2722,0 0,114.2156943 c -6.2343,7.8948 -10.75893,11.8053 -13.75659,13.7436 z m 37.99569,-81.627894 0,13.7799 9.15,5.6238 -0.9492,1.4451 c -4.9617,7.6767 -15.9081,23.146796 -24.2121,35.316594 l 0,-110.72219421 -48.7254,0 0,13.68750021 10.90077,7.1568 0,109.493994 c 0,1.2552 0.10314,2.5302 0.30588,3.7899 0.13125,0.8061 0.30234,1.5984 0.50976,2.3541 l 0.55428,1.7064 0.0703,0.1956 c 1.49649,3.8871 3.95976,6.4794 7.15314,7.5117 l 0.16641,0.0528 c 0.56601,0.171 1.16952,0.2766 1.79412,0.3258 0.0199,0.001 0.0375,0.005 0.0563,0.006 0.0246,0.001 0.0516,0.003 0.0785,0.006 0.15588,0.0105 0.36564,0.0246 0.62931,0.0411 0.51798,0.0294 1.37694,0.0762 2.53242,0.1242 1.93359,0.0807 5.00274,0.177 8.63553,0.177 8.652,0 16.1661,-0.5181 22.3359,-1.5375 9.4722,-1.5669 15.5028,-4.3008 18.4371,-8.3592 7.2927,-10.0851 36.951597,-54.434694 41.301597,-61.133094 l 11.829,-7.2597 0,-13.7823 -31.2645,0.0948 -31.289097,-0.0948"
         inkscape:connector-curvature="0" /></g><path
       sodipodi:nodetypes="ccccccccccccccsccccscccccc"
       d="M 27.76819,30.510804 C 18.816977,30.123891 10.955139,29.746725 7.6947794,29.656527 l 20.0734106,0.854277 -0.263543,-3.555173 1.210838,-0.652188 0.614446,-0.329392 2.568011,-1.381914 c 0.161529,-0.153723 0.168243,-0.40595 0.01516,-0.565624 l -13.30051,-5.887608 c -0.154084,-0.159894 -0.410415,-0.166419 -0.570649,-0.01496 L 4.4446906,23.306111 c -0.1627019,0.151308 -0.1694047,0.404743 -0.015161,0.565623 l 0.9877432,0.599009 -0.0878,0.873851 c -0.3458394,0.04871 -0.6170205,0.336404 -0.6265931,0.693448 -0.00859,0.320525 0.1985123,0.599534 0.4890837,0.700314 l -0.8051523,8.110758 0.7457012,2.423972 C 6.6684642,33.977714 5.7974148,30.273343 5.6375205,26.750042 5.9343088,26.663484 6.154823,26.398047 6.1634439,26.076349 6.1730122,25.7193 5.917629,25.417798 5.57608,25.351051 l -0.037958,-0.80758 1.3829955,0.841678 0.056355,0.03329 1.0979609,0.667932 -0.3806326,3.570122"
       id="path32-8-0-0"
       inkscape:connector-curvature="0"
       style="fill:none;fill-opacity:1;stroke:#b78e4a;stroke-width:0.78397584;stroke-miterlimit:4;stroke-dasharray:none;stroke-opacity:1" /></g></svg>