<?xml version="1.0" encoding="UTF-8" standalone="no"?>
<!-- Created with Inkscape (http://www.inkscape.org/) -->

<svg
   xmlns:dc="http://purl.org/dc/elements/1.1/"
   xmlns:cc="http://creativecommons.org/ns#"
   xmlns:rdf="http://www.w3.org/1999/02/22-rdf-syntax-ns#"
   xmlns:svg="http://www.w3.org/2000/svg"
   xmlns="http://www.w3.org/2000/svg"
   xmlns:sodipodi="http://sodipodi.sourceforge.net/DTD/sodipodi-0.dtd"
   xmlns:inkscape="http://www.inkscape.org/namespaces/inkscape"
   width="791.68701"
   height="723.75092"
   id="svg2"
   version="1.1"
   inkscape:version="0.91 r13725"
   sodipodi:docname="flyer.svg">
  <defs
     id="defs4" />
  <sodipodi:namedview
     id="base"
     pagecolor="#ffffff"
     bordercolor="#666666"
     borderopacity="1.0"
     inkscape:pageopacity="0.0"
     inkscape:pageshadow="2"
     inkscape:zoom="0.94045202"
     inkscape:cx="683.53689"
     inkscape:cy="319.85638"
     inkscape:document-units="px"
     inkscape:current-layer="layer1"
     showgrid="false"
     inkscape:window-width="1920"
     inkscape:window-height="1051"
     inkscape:window-x="-9"
     inkscape:window-y="-9"
     inkscape:window-maximized="1"
     fit-margin-top="0"
     fit-margin-left="0"
     fit-margin-right="0"
     fit-margin-bottom="0" />
  <metadata
     id="metadata7">
    <rdf:RDF>
      <cc:Work
         rdf:about="">
        <dc:format>image/svg+xml</dc:format>
        <dc:type
           rdf:resource="http://purl.org/dc/dcmitype/StillImage" />
        <dc:title></dc:title>
      </cc:Work>
    </rdf:RDF>
  </metadata>
  <g
     inkscape:label="Layer 1"
     inkscape:groupmode="layer"
     id="layer1"
     transform="translate(-21.617737,90.33041)">
    <g
       id="g4714"
       transform="translate(-7.4432293,-379.60469)">
      <path
         inkscape:connector-curvature="0"
         d="m 244.82356,448.13478 14.775,-14.9073 c 2.3073,-2.3076 3.6375,-4.2609 3.9948,-5.8572 0.2649,-1.2396 -0.9339,-1.9956 -3.5964,-2.2617 l -1.8633,-0.1335 c -2.9262,-0.354 -4.3032,-2.0415 -4.125,-5.0589 l 0,-1.0641 30.3492,0 0,1.0641 c 0.1746,2.6625 -1.1988,4.3053 -4.1262,4.9254 l -5.5923,0.6654 c -1.419,1.2435 -3.9057,3.6387 -7.4517,7.1883 -3.6411,3.5496 -5.9919,6.0354 -7.056,7.4532 l 21.5625,33.4101 3.1956,0.5334 c 2.6616,0.5319 3.9036,1.9533 3.7278,4.2585 l 0,1.0665 -24.2262,0 -19.4343,-31.4145 0,-0.1347 -0.1335,0.267 z m -29.5488,31.548 0,-1.065 c -0.1794,-2.3076 0.975,-3.7278 3.4605,-4.26 l 4.923,-0.6666 0,-80.6613 -4.6569,-1.5996 c -2.487,-0.8838 -3.6399,-2.5713 -3.4629,-5.0556 l 0,-1.5984 25.2936,0 0,89.1807 3.1935,0.5322 c 2.6613,0.6222 3.8133,2.0871 3.4617,4.3944 l 0,1.0653 -32.2125,0 0,-0.2661"
         style="fill:#b78e4a;fill-opacity:1;fill-rule:nonzero;stroke:none"
         id="path2997" />
      <path
         inkscape:connector-curvature="0"
         d="m 302.95096,396.08958 c 0.5331,-5.502 3.6375,-8.5197 9.3162,-9.0516 5.5911,0.5319 8.6532,3.5496 9.1851,9.0516 -0.5319,5.5041 -3.594,8.5194 -9.1851,9.0516 -5.6787,-0.5322 -8.7831,-3.5475 -9.3162,-9.0516 z m -7.7193,83.5932 0.2661,-1.065 c -0.0903,-2.3076 1.1988,-3.7278 3.8601,-4.26 l 4.7895,-0.5331 0,-47.2524 -5.0568,-1.0653 c -2.6637,-0.7113 -3.8589,-2.3952 -3.5928,-5.0577 l 0,-1.0641 25.5537,0 0,54.5718 5.5935,0.5322 c 2.571,0.5319 3.6786,2.0436 3.327,4.5258 l 0,1.0653 -34.875,0 0,-0.1314 0.1347,-0.2661"
         style="fill:#b78e4a;fill-opacity:1;fill-rule:nonzero;stroke:none"
         id="path2999" />
      <path
         inkscape:connector-curvature="0"
         d="m 338.26876,479.68278 0,-1.065 c -0.2661,-2.4846 0.9327,-3.9483 3.5943,-4.3935 l 5.0577,-0.5331 0,-47.2512 -4.7919,-1.0653 c -2.6637,-0.7101 -3.9069,-2.3952 -3.7287,-5.0565 l 0,-1.0677 23.9613,0 c 1.065,6.5694 1.596,13.1343 1.596,19.7016 1.419,-6.3012 3.903,-11.4024 7.455,-15.3084 3.549,-3.9021 7.896,-5.9436 13.041,-6.1242 l 0.537,0 0,5.0592 c 0.084,5.6799 -0.756,9.4053 -2.529,11.1819 -1.779,1.7754 -4.881,2.5746 -9.321,2.3931 -3.723,-0.1746 -6.21,0.6234 -7.452,2.3976 -1.332,1.7766 -1.953,5.679 -1.863,11.7141 l 0,22.8948 9.315,0.7968 c 2.664,0.3564 3.816,1.8645 3.462,4.527 l 0,1.0641 -38.4684,0 0,-0.1311 0.1347,0.2658"
         style="fill:#b78e4a;fill-opacity:1;fill-rule:nonzero;stroke:none"
         id="path3001" />
      <path
         inkscape:connector-curvature="0"
         d="m 424.05946,477.02148 c 4.611,0.177 7.986,-1.7766 10.113,-5.8593 2.133,-4.0794 3.198,-11.4456 3.198,-22.0944 0,-10.6491 -1.065,-17.9241 -3.198,-21.8298 -2.127,-3.906 -5.502,-5.7681 -10.113,-5.5923 -4.707,-0.1758 -8.121,1.6863 -10.248,5.5923 -2.133,3.9057 -3.198,11.1807 -3.198,21.8298 0,10.6488 0.978,18.015 2.931,22.0944 2.037,4.0827 5.544,6.0363 10.515,5.8593 l 0,-0.1347 0,0.1347 z m -23.163,-51.2472 c 6.39,-5.502 14.286,-8.2968 23.694,-8.3871 9.231,0 16.77,2.6181 22.629,7.854 5.856,5.325 8.871,13.0899 9.051,23.2944 -0.18,10.2939 -3.375,18.3246 -9.585,24.0903 -6.21,5.6811 -13.932,8.5629 -23.157,8.6532 -9.411,0 -17.13,-2.7048 -23.163,-8.1189 -6.036,-5.4117 -9.141,-13.2657 -9.318,-23.5617 0.177,-10.2915 3.462,-18.2343 9.849,-23.8242"
         style="fill:#b78e4a;fill-opacity:1;fill-rule:nonzero;stroke:none"
         id="path3003" />
      <path
         inkscape:connector-curvature="0"
         d="m 461.73947,479.68278 0,-1.065 c -0.18,-2.3076 1.107,-3.7278 3.858,-4.26 l 4.791,-0.5331 0,-47.2524 -4.791,-1.0653 c -2.661,-0.7113 -3.906,-2.3952 -3.726,-5.0577 l 0,-1.0641 23.961,0 c 0.708,4.4379 1.197,9.4068 1.461,14.9064 1.419,-4.4367 3.996,-8.2971 7.722,-11.5806 3.813,-3.2823 8.385,-5.0109 13.71,-5.1915 12.423,0 18.723,6.7455 18.9,20.235 l 0,35.9367 5.19,0.5331 c 2.754,0.5319 4.038,1.9524 3.861,4.2597 l 0,1.0641 -33.543,0 0,-1.0641 c -0.177,-2.3073 1.113,-3.7698 3.861,-4.392 l 3.726,-0.5334 0,-33.2766 c -0.177,-9.0513 -3.237,-13.3533 -9.183,-12.9117 -3.372,0 -6.48,1.5963 -9.315,4.7919 -2.751,3.1944 -4.218,8.0766 -4.398,14.6415 l 0,26.8875 4.527,0.5331 c 2.841,0.5319 4.08,1.9524 3.729,4.2597 l 0,1.0641 -34.077,0 0,-0.1311 -0.264,0.2658"
         style="fill:#b78e4a;fill-opacity:1;fill-rule:nonzero;stroke:none"
         id="path3005" />
      <path
         inkscape:connector-curvature="0"
         d="m 170.44576,527.19891 -28.0125,-0.0867 c -5.8956,-9.34569 -28.1952,-42.3633 -40.4004,-59.4762 -1.4556,-2.0415 -2.7879,-3.8544 -3.9528,-5.3778 -1.569,-2.0448 -2.8416,-3.5601 -3.7182,-4.3815 -0.6024,-0.5661 -1.1988,-1.1052 -1.7895,-1.6254 -0.7443,-0.6564 -1.479,-1.281 -2.2068,-1.8681 0.0762,-0.001 0.1536,-0.001 0.2298,-0.002 0.5754,-0.005 1.1589,-0.008 1.7532,-0.008 22.2303,0 26.3424,4.1451 26.9379,4.9758 7.5831,10.5375 40.8399,59.81604 41.1597,60.3141 l 0.5073,0.78399 9.4923,5.8242 0,0.92814 z m -65.4633,-0.97851 0,0.99141 -43.4496,0 0,-1.02189 10.90077,-7.15665 0,-56.07309 c 0,-0.8178 0.06798,-1.6512 0.20274,-2.4762 0.07734,-0.4851 0.17811,-0.9561 0.29532,-1.4028 l 0.42654,-1.2984 c 0.54963,-1.3875 1.28205,-2.3379 1.94649,-2.544 0.02226,-0.006 0.04338,-0.0141 0.06564,-0.021 0.02694,-0.007 0.06561,-0.0141 0.10779,-0.0213 3.84024,1.2705 7.44612,3.504 11.65791,7.2282 1.4964,1.5048 3.1488,3.3165 4.9605,5.5008 0.5298,0.6996 1.1016,1.4754 1.7085,2.3145 l 0,48.82377 11.1774,7.15665 z m 20.9835,-71.67672 c -2.4633,-3.4206 -7.3065,-5.7267 -14.8089,-7.0488 -5.0811,-0.8952 -11.4093,-1.3488 -18.8085,-1.3488 -4.8222,0 -9.1407,0.1971 -11.91219,0.3621 -1.64766,0.0996 -2.9004,0.1947 -3.65976,0.2568 -0.44883,0.0363 -0.79806,0.0678 -1.03242,0.0903 -0.27891,0.0267 -0.53205,0.0702 -0.77463,0.1263 -0.69258,0.0552 -1.36641,0.1758 -2.00154,0.3669 -0.04923,0.0153 -0.09492,0.0294 -0.14181,0.0456 -3.19101,1.0149 -5.67306,3.612 -7.17774,7.5189 l -0.56601,1.7073 -0.05859,0.1959 c -0.20742,0.7545 -0.37851,1.5468 -0.50976,2.3541 -0.20274,1.2588 -0.30588,2.5338 -0.30588,3.7899 l 0,51.63405 -10.90077,7.15545 0,13.68751 59.9004,0 0,-13.71679 -11.175,-7.15782 0,-32.4867 c 10.0734,14.8968 24.8565,35.77029 34.644,51.33397 l 1.206,1.91601 40.7907,0.12422 0,-13.78125 -11.8254,-7.25859 c -4.281,-6.60939 -33.6234,-49.77666 -40.8822,-59.86656"
         style="fill:#b78e4a;fill-opacity:1;fill-rule:nonzero;stroke:none"
         id="path3007" />
      <path
         inkscape:connector-curvature="0"
         d="m 172.36996,353.01018 -9.4899,5.823 -0.5049,0.7806 c -0.3294,0.5085 -33.9705,51.0549 -41.5746,61.5726 -2.1225,2.9331 -11.1375,6.0564 -30.0399,6.4488 1.2633,-1.2117 2.4738,-2.5032 3.7287,-3.8391 0.4782,-0.5085 0.9669,-1.0287 1.4721,-1.5609 1.0008,-1.0512 2.5464,-3.0222 4.446,-5.6049 0.5169,-0.7044 1.0593,-1.4532 1.6254,-2.2419 10.2315,-14.2605 28.6452,-41.4117 31.1133,-45.2298 l 5.5794,-8.4912 -12.4536,-7.6548 0,-0.9294 23.0613,0.0693 23.0367,-0.0693 0,0.927 z m -92.32149,72.4488 c -1.43553,0.7476 -3.05157,1.329 -5.00976,1.7484 -0.59883,-0.3537 -1.20585,-1.2222 -1.68048,-2.4174 l -0.42654,-1.2984 c -0.11721,-0.4467 -0.21798,-0.9177 -0.29532,-1.4028 -0.13476,-0.8262 -0.20274,-1.6593 -0.20274,-2.4762 l 0,-113.9343 -10.90077,-7.1568 0,-1.0218 32.2722,0 0,114.2157 c -6.2343,7.8948 -10.75893,11.8053 -13.75659,13.7436 z m 37.99569,-81.6279 0,13.7799 9.15,5.6238 -0.9492,1.4451 c -4.9617,7.6767 -15.9081,23.1468 -24.2121,35.3166 l 0,-110.7222 -48.7254,0 0,13.6875 10.90077,7.1568 0,109.494 c 0,1.2552 0.10314,2.5302 0.30588,3.7899 0.13125,0.8061 0.30234,1.5984 0.50976,2.3541 l 0.55428,1.7064 0.07032,0.1956 c 1.49649,3.8871 3.95976,6.4794 7.15314,7.5117 l 0.16641,0.0528 c 0.56601,0.171 1.16952,0.2766 1.79412,0.3258 0.01992,10e-4 0.0375,0.005 0.05625,0.006 0.02463,10e-4 0.05157,0.003 0.07851,0.006 0.15588,0.0105 0.36564,0.0246 0.62931,0.0411 0.51798,0.0294 1.37694,0.0762 2.53242,0.1242 1.93359,0.0807 5.00274,0.177 8.63553,0.177 8.652,0 16.1661,-0.5181 22.3359,-1.5375 9.4722,-1.5669 15.5028,-4.3008 18.4371,-8.3592 7.2927,-10.0851 36.9516,-54.4347 41.3016,-61.1331 l 11.829,-7.2597 0,-13.7823 -31.2645,0.0948 -31.2891,-0.0948"
         style="fill:#b78e4a;fill-opacity:1;fill-rule:nonzero;stroke:none"
         id="path3009" />
      <ellipse
         transform="matrix(0.54269608,0,0,0.74611065,253.09547,119.73503)"
         id="path3020"
         style="fill:#b78e4a;fill-opacity:1;fill-rule:nonzero;stroke:none"
         cx="561.18878"
         cy="471.24332"
         rx="14.335665"
         ry="11.188811" />
      <g
         id="text3022"
         style="font-style:normal;font-variant:normal;font-weight:bold;font-stretch:normal;font-size:56.41135788px;line-height:125%;font-family:FrankRuehl;-inkscape-font-specification:'FrankRuehl Bold';letter-spacing:0px;word-spacing:0px;fill:#b78e4a;fill-opacity:1;stroke:#000000;stroke-width:0;stroke-miterlimit:4;stroke-dasharray:none;stroke-opacity:1"
         transform="scale(0.93140025,1.0736523)">
        <path
           sodipodi:nodetypes="cscscccccccczcczcsccc"
           inkscape:connector-curvature="0"
           id="path3832"
           style="font-size:126.92557526px;font-family:FrankRuehl;-inkscape-font-specification:'FrankRuehl Bold';fill:#b78e4a;stroke:#000000;stroke-width:0;stroke-miterlimit:4;stroke-dasharray:none;stroke-opacity:1"
           d="m 690.06563,423.82316 c -8.33834,15.21496 -20.15497,22.82243 -35.44991,22.82243 -14.15366,0 -25.09618,-5.22486 -32.82759,-15.67546 -5.76113,-7.7624 -8.64169,-16.88592 -8.64169,-27.37012 0,-8.19878 1.79212,-15.77932 5.37637,-22.74128 3.79081,-7.28462 9.14651,-12.96182 16.06711,-17.03161 6.63908,-3.8837 13.92118,-5.8256 21.84632,-5.82568 6.21556,8e-5 12.29302,1.50815 18.23239,4.5242 1.54673,0.79285 2.55899,1.18923 3.03679,1.18915 1.76881,8e-5 3.0987,-1.90437 3.98966,-5.71335 l 4.50871,0 1.97934,30.49188 c 0,0 -1.93282,7.87859 -4.30341,0 -2.3706,-7.87859 -13.56493,-21.15984 -26.47124,-21.15992 -9.07634,2.47602 -10.67978,3.71114 -15.36823,11.97872 -3.5468,8.51517 -5.05803,11.20814 -4.59202,25.52586 0.46602,14.31771 2.71526,16.93599 7.73152,24.64659 7.01413,5.48225 9.80557,7.78634 15.70361,7.78633 5.89793,1e-5 9.27133,0.0681 13.54511,-2.89643 3.37759,-2.32923 7.38404,-6.53839 12.01935,-12.62748 z" />
        <path
           sodipodi:nodetypes="ccscccccczccscccccsccccccczccccccccc"
           inkscape:connector-curvature="0"
           id="path3834"
           style="font-size:126.92557526px;font-family:FrankRuehl;-inkscape-font-specification:'FrankRuehl Bold';fill:#b78e4a;stroke:#000000;stroke-width:0;stroke-miterlimit:4;stroke-dasharray:none;stroke-opacity:1"
           d="m 758.9319,422.49844 c -7e-5,7.20981 -2.82382,13.14395 -8.47126,17.80242 -5.2034,4.22982 -11.48228,6.34473 -18.83664,6.34473 -2.50488,0 -4.83024,-0.18205 -6.9761,-0.54615 -1.27053,-0.20917 -3.97549,-1.01872 -8.11491,-2.42866 -3.4474,-1.13622 -5.77018,-1.70432 -6.96835,-1.70433 -1.2292,10e-6 -2.06715,1.55972 -2.51388,4.67914 l -4.80309,0 0,-30.73204 c 0,0 4.25306,-2.95159 4.7721,0 0.51904,2.95159 2.24401,10.13687 3.61782,12.70108 1.79726,3.40608 4.56549,6.09038 8.3047,8.05293 3.46026,1.84119 7.26141,2.76178 11.40347,2.76178 4.06709,0 5.39815,-1.051 8.2878,-3.153 3.0729,-2.20528 4.60937,-3.3754 4.60942,-7.23596 -5e-5,-4.0697 -2.11109,-7.71075 -6.33311,-10.92316 -2.72696,-2.09422 -7.33379,-4.8999 -13.82051,-8.41703 -6.48678,-3.51707 -11.20465,-6.44282 -14.15363,-8.77727 -6.41704,-5.04836 -7.47825,-12.95246 -7.47825,-19.98672 0,-6.75783 2.60683,-12.33432 7.82052,-16.72948 4.90378,-4.13677 10.79273,-6.2052 17.66686,-6.20528 4.59647,8e-5 9.41247,1.11306 14.44801,3.33892 2.13293,0.93488 3.55578,1.40227 4.26855,1.40219 1.35566,8e-5 2.37825,-1.58029 3.06778,-4.74111 l 4.73725,0 0,30.97994 c 0,0 -4.12392,5.28337 -4.83408,0 -0.71017,-5.28337 -5.22277,-17.53896 -11.40735,-20.91669 -3.3183,-1.81529 -6.70499,-2.72297 -10.16009,-2.72305 -3.42416,8e-5 -4.31753,1.0485 -6.9747,3.14525 -2.7321,2.18988 -4.09814,4.94132 -4.09812,8.25435 -2e-5,2.21052 0.76564,4.23892 2.29696,6.08521 2.47899,2.94389 8.31888,6.89481 17.51967,11.85279 6.57193,3.51198 10.98508,6.17047 13.23949,7.97546 4.46992,2.78376 5.53113,6.0762 7.47825,9.87732 1.60355,3.19693 2.40535,6.51906 2.40542,9.96642 z" />
      </g>
    </g>
    <text
       xml:space="preserve"
       style="font-style:normal;font-weight:normal;font-size:35px;line-height:125%;font-family:sans-serif;letter-spacing:0px;word-spacing:0px;fill:#000000;fill-opacity:1;stroke:none;stroke-width:1px;stroke-linecap:butt;stroke-linejoin:miter;stroke-opacity:1"
       x="41.814011"
       y="222.83446"
       id="text4727"
       sodipodi:linespacing="125%"><tspan
         sodipodi:role="line"
         x="41.814011"
         y="222.83446"
         id="tspan4731"
         style="font-size:45px;fill:#2b5486;fill-opacity:1">Helping you integrate with jobs</tspan></text>
    <text
       xml:space="preserve"
       style="font-style:normal;font-weight:normal;font-size:25px;line-height:125%;font-family:sans-serif;text-align:center;letter-spacing:0px;word-spacing:0px;text-anchor:middle;fill:#000000;fill-opacity:1;stroke:none;stroke-width:1px;stroke-linecap:butt;stroke-linejoin:miter;stroke-opacity:1"
       x="417.41852"
       y="284.50693"
       id="text4735"
       sodipodi:linespacing="125%"><tspan
         sodipodi:role="line"
         id="tspan4737"
         x="417.41852"
         y="284.50693"
         style="font-style:normal;font-variant:normal;font-weight:bold;font-stretch:normal;font-family:sans-serif;-inkscape-font-specification:'sans-serif Bold';fill:#2b5486;fill-opacity:1">Kiron CodeSchool wants to help you</tspan><tspan
         sodipodi:role="line"
         x="417.41852"
         y="315.75693"
         id="tspan4739"
         style="font-style:normal;font-variant:normal;font-weight:bold;font-stretch:normal;font-family:sans-serif;-inkscape-font-specification:'sans-serif Bold';fill:#2b5486;fill-opacity:1">find jobs by making you become a</tspan><tspan
         sodipodi:role="line"
         x="417.41852"
         y="347.00693"
         id="tspan4743"
         style="font-style:normal;font-variant:normal;font-weight:bold;font-stretch:normal;font-family:sans-serif;-inkscape-font-specification:'sans-serif Bold';fill:#2b5486;fill-opacity:1">software developer.</tspan><tspan
         sodipodi:role="line"
         x="417.41852"
         y="378.25693"
         id="tspan4765"
         style="font-style:normal;font-variant:normal;font-weight:bold;font-stretch:normal;font-family:sans-serif;-inkscape-font-specification:'sans-serif Bold'" /><tspan
         sodipodi:role="line"
         x="417.41852"
         y="409.50693"
         id="tspan4747"
         style="font-style:normal;font-variant:normal;font-weight:bold;font-stretch:normal;font-family:sans-serif;-inkscape-font-specification:'sans-serif Bold';fill:#000000;fill-opacity:1">Why Software delopment?</tspan><tspan
         sodipodi:role="line"
         x="417.41852"
         y="440.75693"
         id="tspan4749"
         style="font-style:normal;font-variant:normal;font-weight:bold;font-stretch:normal;font-family:sans-serif;-inkscape-font-specification:'sans-serif Bold'"><tspan
           style="font-style:normal;font-variant:normal;font-weight:bold;font-stretch:normal;font-family:sans-serif;-inkscape-font-specification:'sans-serif Bold';fill:#2b5486;fill-opacity:1"
           id="tspan4769">Because there is a growing need for software developer.</tspan></tspan><tspan
         sodipodi:role="line"
         x="421.69098"
         y="472.00693"
         id="tspan4753"
         style="font-style:normal;font-variant:normal;font-weight:bold;font-stretch:normal;font-family:sans-serif;-inkscape-font-specification:'sans-serif Bold';fill:#2b5486;fill-opacity:1">As a result finding job for well </tspan><tspan
         sodipodi:role="line"
         x="417.41852"
         y="503.25693"
         id="tspan4759"
         style="font-style:normal;font-variant:normal;font-weight:bold;font-stretch:normal;font-family:sans-serif;-inkscape-font-specification:'sans-serif Bold';fill:#2b5486;fill-opacity:1">trained professionals is easy and you can recieve</tspan><tspan
         sodipodi:role="line"
         x="417.41852"
         y="534.50696"
         id="tspan4761"
         style="font-style:normal;font-variant:normal;font-weight:bold;font-stretch:normal;font-family:sans-serif;-inkscape-font-specification:'sans-serif Bold';fill:#2b5486;fill-opacity:1">over the average salaries.</tspan><tspan
         sodipodi:role="line"
         x="417.41852"
         y="565.75696"
         id="tspan4767"
         style="font-style:normal;font-variant:normal;font-weight:bold;font-stretch:normal;font-family:sans-serif;-inkscape-font-specification:'sans-serif Bold'" /><tspan
         sodipodi:role="line"
         x="417.41852"
         y="597.00696"
         id="tspan4763"
         style="font-style:normal;font-variant:normal;font-weight:bold;font-stretch:normal;font-family:sans-serif;-inkscape-font-specification:'sans-serif Bold'">How do I do it?</tspan><tspan
         sodipodi:role="line"
         x="417.41852"
         y="628.25696"
         style="font-style:normal;font-variant:normal;font-weight:bold;font-stretch:normal;font-family:sans-serif;-inkscape-font-specification:'sans-serif Bold'"
         id="tspan4779">Apply by fillin the following form, or write to us</tspan><tspan
         sodipodi:role="line"
         x="417.41852"
         y="659.50696"
         style="font-style:normal;font-variant:normal;font-weight:bold;font-stretch:normal;font-family:sans-serif;-inkscape-font-specification:'sans-serif Bold'"
         id="tspan4781" /><tspan
         sodipodi:role="line"
         x="417.41852"
         y="690.75696"
         id="tspan4755" /></text>
    <flowRoot
       xml:space="preserve"
       id="flowRoot4771"
       style="font-style:normal;font-weight:normal;font-size:40px;line-height:125%;font-family:sans-serif;letter-spacing:0px;word-spacing:0px;fill:#000000;fill-opacity:1;stroke:none;stroke-width:1px;stroke-linecap:butt;stroke-linejoin:miter;stroke-opacity:1"
       transform="translate(53.30746,289.27428)"><flowRegion
         id="flowRegion4773"><rect
           id="rect4775"
           width="132.91481"
           height="204.15715"
           x="333.88199"
           y="90.931297" /></flowRegion><flowPara
         id="flowPara4777"></flowPara></flowRoot>  </g>
</svg>
